<svg width="18" height="18" viewBox="0 0 18 18" fill="none" xmlns="http://www.w3.org/2000/svg">
<path d="M11.4706 17.325C11.4706 16.9522 11.1684 16.65 10.7956 16.65H1.82353C1.54739 16.65 1.32353 16.4261 1.32353 16.15V1.85C1.32353 1.57386 1.54739 1.35 1.82353 1.35H10.7956C11.1684 1.35 11.4706 1.04779 11.4706 0.675V0.675C11.4706 0.302208 11.1684 0 10.7956 0H2C0.895432 0 0 0.895431 0 2V16C0 17.1046 0.89543 18 2 18H10.7956C11.1684 18 11.4706 17.6978 11.4706 17.325V17.325ZM9.8947 8.64C9.54677 8.64 9.26471 8.92206 9.26471 9.27V9.27C9.26471 9.61794 9.54677 9.9 9.89471 9.9H15.4412L13.2698 12.1148C13.0056 12.3843 13.0056 12.8157 13.2698 13.0852V13.0852C13.5415 13.3624 13.9879 13.3624 14.2596 13.0852L17.3137 9.97007C17.6949 9.58121 17.6949 8.95879 17.3137 8.56993L14.2596 5.4548C13.9879 5.17764 13.5415 5.17764 13.2698 5.4548V5.4548C13.0056 5.72431 13.0056 6.15569 13.2698 6.4252L15.4412 8.64H9.8947Z" fill="#141C24"/>
</svg>
