<svg width="18" height="18" viewBox="0 0 18 18" fill="none" xmlns="http://www.w3.org/2000/svg">
<path d="M9 18.0004C6.48333 18.0004 4.35417 17.1296 2.6125 15.3879C0.870833 13.6463 0 11.5171 0 9.00044C0 6.70044 0.75 4.70461 2.25 3.01294C3.75 1.32128 5.66667 0.333776 8 0.0504427C8.21667 0.0171094 8.40833 0.046276 8.575 0.137943C8.74167 0.229609 8.875 0.350443 8.975 0.500443C9.075 0.650443 9.12917 0.825443 9.1375 1.02544C9.14583 1.22544 9.08333 1.41711 8.95 1.60044C8.66667 2.03378 8.45417 2.49211 8.3125 2.97544C8.17083 3.45878 8.1 3.96711 8.1 4.50044C8.1 6.00044 8.625 7.27544 9.675 8.32544C10.725 9.37544 12 9.90044 13.5 9.90044C14.0167 9.90044 14.5292 9.82544 15.0375 9.67544C15.5458 9.52544 16 9.31711 16.4 9.05044C16.5833 8.93378 16.7708 8.87961 16.9625 8.88794C17.1542 8.89628 17.325 8.94211 17.475 9.02544C17.6417 9.10878 17.7708 9.23378 17.8625 9.40044C17.9542 9.56711 17.9833 9.76711 17.95 10.0004C17.7167 12.3004 16.7375 14.2088 15.0125 15.7254C13.2875 17.2421 11.2833 18.0004 9 18.0004ZM9 16.0004C10.4667 16.0004 11.7833 15.5963 12.95 14.7879C14.1167 13.9796 14.9667 12.9254 15.5 11.6254C15.1667 11.7088 14.8333 11.7754 14.5 11.8254C14.1667 11.8754 13.8333 11.9004 13.5 11.9004C11.45 11.9004 9.70417 11.1796 8.2625 9.73794C6.82083 8.29628 6.1 6.55044 6.1 4.50044C6.1 4.16711 6.125 3.83378 6.175 3.50044C6.225 3.16711 6.29167 2.83378 6.375 2.50044C5.075 3.03378 4.02083 3.88378 3.2125 5.05044C2.40417 6.21711 2 7.53378 2 9.00044C2 10.9338 2.68333 12.5838 4.05 13.9504C5.41667 15.3171 7.06667 16.0004 9 16.0004Z" fill="#97A1AF"/>
</svg>
