<svg width="37" height="30" viewBox="0 0 37 30" fill="none" xmlns="http://www.w3.org/2000/svg">
<path d="M35.7667 11.7038H34.1017L29.8189 1.59851C29.6251 1.1413 29.309 0.752861 28.909 0.480236C28.5089 0.207611 28.0421 0.062506 27.565 0.0625H9.435C8.95791 0.062506 8.49107 0.207611 8.09102 0.480236C7.69098 0.752861 7.3749 1.1413 7.18108 1.59851L2.89833 11.7038H1.23333C0.906233 11.7038 0.59253 11.8401 0.361235 12.0827C0.12994 12.3252 0 12.6542 0 12.9973C0 13.3403 0.12994 13.6693 0.361235 13.9119C0.59253 14.1545 0.906233 14.2908 1.23333 14.2908H2.46667V27.2255C2.46667 27.9116 2.72655 28.5696 3.18914 29.0548C3.65173 29.5399 4.27913 29.8125 4.93333 29.8125H8.63333C9.28753 29.8125 9.91494 29.5399 10.3775 29.0548C10.8401 28.5696 11.1 27.9116 11.1 27.2255V25.9321H25.9V27.2255C25.9 27.9116 26.1599 28.5696 26.6225 29.0548C27.0851 29.5399 27.7125 29.8125 28.3667 29.8125H32.0667C32.7209 29.8125 33.3483 29.5399 33.8109 29.0548C34.2735 28.5696 34.5333 27.9116 34.5333 27.2255V14.2908H35.7667C36.0938 14.2908 36.4075 14.1545 36.6388 13.9119C36.8701 13.6693 37 13.3403 37 12.9973C37 12.6542 36.8701 12.3252 36.6388 12.0827C36.4075 11.8401 36.0938 11.7038 35.7667 11.7038ZM11.1 19.4647H7.4C7.0729 19.4647 6.7592 19.3284 6.5279 19.0858C6.29661 18.8432 6.16667 18.5142 6.16667 18.1712C6.16667 17.8281 6.29661 17.4991 6.5279 17.2566C6.7592 17.014 7.0729 16.8777 7.4 16.8777H11.1C11.4271 16.8777 11.7408 17.014 11.9721 17.2566C12.2034 17.4991 12.3333 17.8281 12.3333 18.1712C12.3333 18.5142 12.2034 18.8432 11.9721 19.0858C11.7408 19.3284 11.4271 19.4647 11.1 19.4647ZM29.6 19.4647H25.9C25.5729 19.4647 25.2592 19.3284 25.0279 19.0858C24.7966 18.8432 24.6667 18.5142 24.6667 18.1712C24.6667 17.8281 24.7966 17.4991 25.0279 17.2566C25.2592 17.014 25.5729 16.8777 25.9 16.8777H29.6C29.9271 16.8777 30.2408 17.014 30.4721 17.2566C30.7034 17.4991 30.8333 17.8281 30.8333 18.1712C30.8333 18.5142 30.7034 18.8432 30.4721 19.0858C30.2408 19.3284 29.9271 19.4647 29.6 19.4647ZM5.59779 11.7038L9.435 2.64946H27.565L31.4022 11.7038H5.59779Z" fill="#DB0019"/>
</svg>
