<svg width="56" height="57" viewBox="0 0 56 57" fill="none" xmlns="http://www.w3.org/2000/svg">
<path d="M56 28.1231C56 43.587 43.464 56.1231 28 56.1231C12.536 56.1231 0 43.587 0 28.1231C0 12.6591 12.536 0.123047 28 0.123047C43.464 0.123047 56 12.6591 56 28.1231Z" fill="url(#paint0_linear_245_3189)"/>
<path d="M40.1381 19.513C39.4904 18.9965 38.5466 19.1029 38.0301 19.7506L24.9464 36.1595C24.7604 36.3927 24.4128 36.4122 24.2019 36.2013L17.8649 29.8643C17.2791 29.2785 16.3294 29.2785 15.7436 29.8643C15.1578 30.4501 15.1578 31.3999 15.7436 31.9856L22.0806 38.3226C23.5572 39.7993 25.9901 39.6626 27.292 38.0298L40.3757 21.6209C40.8922 20.9732 40.7858 20.0294 40.1381 19.513Z" fill="white"/>
<defs>
<linearGradient id="paint0_linear_245_3189" x1="28" y1="56.1231" x2="28" y2="0.123045" gradientUnits="userSpaceOnUse">
<stop stop-color="#7DBA6E"/>
<stop offset="0.9531" stop-color="#C6E99A"/>
</linearGradient>
</defs>
</svg>
