<svg width="19" height="20" viewBox="0 0 19 20" fill="none" xmlns="http://www.w3.org/2000/svg">
<path fill-rule="evenodd" clip-rule="evenodd" d="M13.6196 1.56984C14.382 0.770532 15.648 0.74057 16.4473 1.50292L17.8946 2.88328C18.6939 3.64563 18.7238 4.91161 17.9615 5.71091L6.01242 18.2393C5.75179 18.5125 5.41912 18.7064 5.0529 18.7985L1.69733 19.6423C0.984107 19.8217 0.327778 19.1957 0.473195 18.4748L1.15735 15.0831C1.23202 14.7129 1.40996 14.3714 1.67059 14.0982L13.6196 1.56984ZM15.412 2.58838L16.8593 3.96874C17.0591 4.15932 17.0666 4.47582 16.876 4.67565L15.8688 5.73165L13.6979 3.66112L14.7051 2.60511C14.8957 2.40528 15.2122 2.39779 15.412 2.58838ZM12.8026 4.59985L2.75604 15.1335C2.69089 15.2018 2.6464 15.2871 2.62773 15.3797L2.10033 17.9943L4.68708 17.3438C4.77863 17.3208 4.8618 17.2723 4.92696 17.204L14.9735 6.67039L12.8026 4.59985Z" fill="#97A1AF"/>
</svg>
