<svg width="24" height="25" viewBox="0 0 24 25" fill="none" xmlns="http://www.w3.org/2000/svg">
<path d="M12 14.6277C12.25 14.6277 12.4583 14.5401 12.625 14.3647C12.7917 14.1901 12.875 13.9861 12.875 13.7527C12.875 13.5027 12.7917 13.2901 12.625 13.1147C12.4583 12.9401 12.25 12.8527 12 12.8527C11.75 12.8527 11.5417 12.9401 11.375 13.1147C11.2083 13.2901 11.125 13.5027 11.125 13.7527C11.125 13.9861 11.2083 14.1901 11.375 14.3647C11.5417 14.5401 11.75 14.6277 12 14.6277ZM16 14.6277C16.25 14.6277 16.4583 14.5401 16.625 14.3647C16.7917 14.1901 16.875 13.9861 16.875 13.7527C16.875 13.5027 16.7917 13.2901 16.625 13.1147C16.4583 12.9401 16.25 12.8527 16 12.8527C15.75 12.8527 15.5417 12.9401 15.375 13.1147C15.2083 13.2901 15.125 13.5027 15.125 13.7527C15.125 13.9861 15.2083 14.1901 15.375 14.3647C15.5417 14.5401 15.75 14.6277 16 14.6277ZM8 14.6277C8.25 14.6277 8.45833 14.5401 8.625 14.3647C8.79167 14.1901 8.875 13.9861 8.875 13.7527C8.875 13.5027 8.79167 13.2901 8.625 13.1147C8.45833 12.9401 8.25 12.8527 8 12.8527C7.75 12.8527 7.54167 12.9401 7.375 13.1147C7.20833 13.2901 7.125 13.5027 7.125 13.7527C7.125 13.9861 7.20833 14.1901 7.375 14.3647C7.54167 14.5401 7.75 14.6277 8 14.6277ZM12 18.5527C12.25 18.5527 12.4583 18.4654 12.625 18.2907C12.7917 18.1154 12.875 17.9111 12.875 17.6777C12.875 17.4277 12.7917 17.2154 12.625 17.0407C12.4583 16.8654 12.25 16.7777 12 16.7777C11.75 16.7777 11.5417 16.8654 11.375 17.0407C11.2083 17.2154 11.125 17.4277 11.125 17.6777C11.125 17.9111 11.2083 18.1154 11.375 18.2907C11.5417 18.4654 11.75 18.5527 12 18.5527ZM16 18.5527C16.25 18.5527 16.4583 18.4654 16.625 18.2907C16.7917 18.1154 16.875 17.9111 16.875 17.6777C16.875 17.4277 16.7917 17.2154 16.625 17.0407C16.4583 16.8654 16.25 16.7777 16 16.7777C15.75 16.7777 15.5417 16.8654 15.375 17.0407C15.2083 17.2154 15.125 17.4277 15.125 17.6777C15.125 17.9111 15.2083 18.1154 15.375 18.2907C15.5417 18.4654 15.75 18.5527 16 18.5527ZM8 18.5527C8.25 18.5527 8.45833 18.4654 8.625 18.2907C8.79167 18.1154 8.875 17.9111 8.875 17.6777C8.875 17.4277 8.79167 17.2154 8.625 17.0407C8.45833 16.8654 8.25 16.7777 8 16.7777C7.75 16.7777 7.54167 16.8654 7.375 17.0407C7.20833 17.2154 7.125 17.4277 7.125 17.6777C7.125 17.9111 7.20833 18.1154 7.375 18.2907C7.54167 18.4654 7.75 18.5527 8 18.5527ZM18.7 22.0527C19.2 22.0527 19.625 21.8777 19.975 21.5277C20.325 21.1777 20.5 20.7527 20.5 20.2527V6.85273C20.5 6.35273 20.325 5.92773 19.975 5.57773C19.625 5.22773 19.2 5.05273 18.7 5.05273H17.3V3.69023C17.3 3.26912 16.9586 2.92773 16.5375 2.92773C16.1164 2.92773 15.775 3.26912 15.775 3.69023V5.05273H8.2V3.67773C8.2 3.26352 7.86421 2.92773 7.45 2.92773C7.03579 2.92773 6.7 3.26352 6.7 3.67773V5.05273H5.3C4.8 5.05273 4.375 5.22773 4.025 5.57773C3.675 5.92773 3.5 6.35273 3.5 6.85273V20.2527C3.5 20.7527 3.675 21.1777 4.025 21.5277C4.375 21.8777 4.8 22.0527 5.3 22.0527H18.7ZM18.7 20.5527H5.3C5.23333 20.5527 5.16667 20.5194 5.1 20.4527C5.03333 20.3861 5 20.3194 5 20.2527V10.8527H19V20.2527C19 20.3194 18.9667 20.3861 18.9 20.4527C18.8333 20.5194 18.7667 20.5527 18.7 20.5527ZM19 9.35273H5V6.85273C5 6.78607 5.03333 6.7194 5.1 6.65273C5.16667 6.58607 5.23333 6.55273 5.3 6.55273H18.7C18.7667 6.55273 18.8333 6.58607 18.9 6.65273C18.9667 6.7194 19 6.78607 19 6.85273V9.35273Z" fill="#9E9E9E"/>
</svg>
