<svg width="21" height="17" viewBox="0 0 21 17" fill="none" xmlns="http://www.w3.org/2000/svg">
<path d="M13 10.2197C14.3316 10.2197 15.4752 11.2058 15.7617 12.4941L15.8486 12.8857H19.875C19.9439 12.8857 19.9998 12.9419 20 13.0107C20 13.0798 19.944 13.1357 19.875 13.1357H15.8262L15.7568 13.5537C15.5479 14.8072 14.4278 15.8027 13 15.8027C11.6566 15.8027 10.5246 14.8885 10.2393 13.5332L10.1553 13.1357H1.125C1.05596 13.1357 1 13.0798 1 13.0107C1.00018 12.9419 1.05607 12.8857 1.125 12.8857H10.1738L10.2432 12.4688C10.4521 11.2153 11.5722 10.2197 13 10.2197ZM13 10.3857C11.5572 10.3857 10.417 11.5269 10.417 12.9697C10.4172 14.4124 11.5573 15.5527 13 15.5527C14.4427 15.5527 15.5828 14.4124 15.583 12.9697C15.583 11.5269 14.4428 10.3857 13 10.3857ZM8 1.30273C9.4206 1.30273 10.5442 2.29053 10.7559 3.63086L10.8223 4.05273H19.875C19.944 4.05273 20 4.1087 20 4.17773C20 4.24677 19.944 4.30273 19.875 4.30273H10.8486L10.7617 4.69434C10.4753 5.9828 9.33169 6.96973 8 6.96973C6.66831 6.96973 5.52466 5.9828 5.23828 4.69434L5.15137 4.30273H1.125C1.05596 4.30273 1 4.24677 1 4.17773C1 4.1087 1.05597 4.05273 1.125 4.05273H5.17773L5.24414 3.63086C5.45577 2.29053 6.5794 1.30273 8 1.30273ZM8 1.55273C6.5573 1.55273 5.41716 2.69309 5.41699 4.13574C5.41699 5.57855 6.55719 6.71973 8 6.71973C9.44281 6.71973 10.583 5.57855 10.583 4.13574C10.5828 2.69309 9.4427 1.55273 8 1.55273Z" fill="#3E3E3E" stroke="white"/>
</svg>
